<?xml version="1.0" encoding="utf-8"?>
<!-- Generator: Adobe Illustrator 18.0.0, SVG Export Plug-In . SVG Version: 6.00 Build 0)  -->
<!DOCTYPE svg PUBLIC "-//W3C//DTD SVG 1.1//EN" "http://www.w3.org/Graphics/SVG/1.1/DTD/svg11.dtd">
<svg version="1.1" id="Layer_1" xmlns="http://www.w3.org/2000/svg" xmlns:xlink="http://www.w3.org/1999/xlink" x="0px" y="0px"
	 viewBox="-42 298.4 693 253.6" enable-background="new -42 298.4 693 253.6" xml:space="preserve">
<path fill="#101213" d="M485.4,329.4c0.9-2.4,1.5-4.4,2.4-6.6c2.1,0.6,4,1.1,5.8,1.6c0.3-0.9,0.8-1.8,0.6-1.9
	c-7.1-7.1-6.9-11.6,1.6-17.8c5.5-4,11.6-9.7,19.7-3.9c6.7,4.8,9.1,12.9,5.8,21.9c-1.3,3.4-3.2,6.4-4.2,9.8c-0.5,1.8-0.4,4.2,0.4,5.8
	c2.5,6.1,6.2,11.6,8.2,17.8c3.8,11.2,10.3,20.2,19.3,27.7c3.7,3.2,6.7,7.1,11.7,12.5c-5.7-1-8.6-1.5-12.6-2.3
	c1.1,4.7,2.1,8.3,3.7,14.4c-4.5-5-7.6-8.4-10.3-11.6c-2.8,1.3-5.2,2.3-7.8,3.4c1,13,1.9,27.2,3.2,41.5c0.1,1.3,1.4,2.5,2.4,3.4
	c1.9,1.8,3.8,3.8,6.1,5c14.8,7.8,14.4,21.9,13.9,35.3c-0.3,4.8-5.4,9.3-8.3,13.9c-0.8-0.4-1.5-0.8-2.3-1.1c-0.4-6.2-0.6-12.2-1-19.2
	c-4.2,1.8-7.1,2.9-10.3,4.2c1.3-12.2-2.8-20.8-15-25.2c-6.9-2.5-7.6-9.8-7.3-16c0.5-10.8,1.9-21.7,2.9-32.4
	c-1.1-0.4-2.4-0.8-3.5-1.1c-2.3,5-4.4,10-7.2,16.1c-1.9-5.5-2.4-10.7-5.2-13.9c-2.6-3-7.8-3.9-12-5.7c0.9-1.4,1.3-2.3,1.5-2.3
	c16.4-0.4,16.4-0.4,18.2-16.8c0.6-5.5,0.5-11.1,0.8-15.3c-5.8-1.6-11-3.2-15.5-4.5c-11.6,0-23.6,1.5-34.8-0.5
	c-10.8-1.9-21.1-7.6-31.5-11.6c5.2-9.3,10.3-10.6,21.3-6.7c9.1,3.2,18.7,5.5,28.1,7.2c3.9,0.6,8.4-1.4,13.5-2.4
	c-8.1-10.2-23.5-15.5-30.4-13.2c-4.8-5-8.3-10.1-13-13c-3.9-2.5-9.5-2.6-14.9-4c0.4-0.8,1-2.3,1.9-4.4c-3.8-0.6-7.2-1.3-9.8-1.6
	c1.1-2.6,2.3-5.4,3.5-8.6c-2.8,0-5,0-7.3,0c-0.6-0.6-1.1-1.1-1.8-1.8c1.1-0.4,3-0.6,3.3-1.3c1.5-4.3,4.4-6.4,8.4-4.2
	c5.3,3,10.1,6.9,15,10.5C455.4,319.8,469.2,327,485.4,329.4z"/>
<path fill="#111214" d="M117.2,347.9c0.6,8.6-0.3,16.4,2.4,23.1c1.6,4.2,8.3,6.4,13.4,10.1c-7.6,19.2-15.8,40.2-24.3,61.9
	c0-12.4,0-24.5,0-38.1c-11.5,3.9-17.2,13.1-26.1,19.5c6.7,8.2,13.2,16,19.5,24c10.6,13.4,9.6,21.2-3.9,32.7c-0.3-0.5-0.9-1-0.8-1.4
	c4.7-12.6-2.6-20.6-10.6-28.8c-6.1-6.3-11.2-13.5-16.9-20.3c-3.4-4-3.2-8.1,0.3-11.9c4.2-4.5,8.1-9.3,12.6-13.5
	c11.2-10.3,14.9-18.8,5-33c-7.1,3.2-14,6.9-21.4,9.2c-2.9,0.9-9.7-0.9-10-2.3c-2.6-14.4-4.4-29-6.3-43.5c-0.1-0.9,1-1.9,1.9-3.5
	c3.5,2.3,6.6,4.3,9.3,6.1c0,9.6,0,19.5,0,31.4c11.9-4.8,17.2-12.2,20.8-20.6c0.8-1.8-2.1-6.8-4.7-8.1c-7.1-3.8-11.2-9-13-16.6
	c-1-4.5-1.3-8.3,4.4-9c5.9-0.6,13.6-3.2,17.7-0.5c4.7,3,6.1,10.8,8.8,16.4c7.3,0.6,16.6,2,26,2.3c12.1,0.3,24.3-0.1,36.4-0.8
	c2.4-0.1,4.5-2.6,6.8-4.2c3.5-2.4,7.2-4.8,11.2-6.6C164.7,350.4,138.9,344,117.2,347.9z"/>
<path fill="#D82B23" d="M241.5,425.2c-0.9,6.3-1.1,12.9-2.8,18.9c-2.8,10.8-11.5,16.5-22.7,16.4c-4.8,0-9.7,1.9-14.3,1.3
	c-16.4-2.3-23.7-11.6-23.1-28c0.1-3.5,0.5-6.9,0.8-10.5c4.9,1.1,10,2.3,14.9,3.4c9.6,1.4,19.3,2.6,28.9,4c0.3,0,0.5-0.8,0.9-1.4
	c-0.9-0.8-1.8-1.4-2.5-2.1C228.8,430.4,234.8,425.1,241.5,425.2z"/>
<path fill="#C22C28" d="M182.5,404c-0.1-0.3-0.4-0.5-0.4-0.8c1.5-10.1,1.1-21.1,5.2-30.3c3.8-8.8,14-12,24-11.7
	c19.5,0.5,27.7,5.5,32,20.1c1,3.2,0.4,6.8,0.6,10.3c-4.5,0-9.1,0-13.6,0c-1.4-1.8-2.6-3.7-4.4-6.1c-0.4,5.2-0.5,9-0.6,10.5
	c-7.9-0.5-14.4-0.9-21.7-1.4c0.1-2.1,0.5-6.1,0.9-11c-6.1,7.2-11.6,13.7-17,20.3C185.6,404,184.1,404,182.5,404z"/>
<path fill="#C92A25" d="M252.9,409.3c1.1-8.8,2.3-17.7,3.4-26.5c12.1,1.1,24.2,2.4,36.4,3.5c0.4,5,0.8,10.2,1.3,15.3
	c0.5,0.1,1.1,0.3,1.6,0.4c1.3-4.2,2.5-8.2,3.8-12.4c12.7,0.1,25.5,0.3,38.1,0.4c-0.5,5.9-1,11.9-1.5,17.8c-13.2-0.3-26.5-1-39.6-0.8
	c-9.8,0.1-19.7,1.5-29.5,2.4c-3.2,1.1-6.3,2.3-9.8,3.4C256.1,412.1,254.5,410.7,252.9,409.3z"/>
<path fill="#D42821" d="M369.7,445.9c-9.2,0.6-15.6,4.5-16.6,13.7c-3.9-1.4-7.6-2.6-11.2-3.9c1.3-13.1,2.6-26.4,3.9-39.5
	c16.5,0,32.9,0,49.4,0c0.8,1.3,1.3,3,2.4,3.7c6.4,3.4,9.3,8.4,8.3,15.8c-8.4-1.4-17.8,3.3-25.5-3.5c-1.3-4.7-3.2-8.2-9.5-6.4
	C370.7,432.5,370.2,439.2,369.7,445.9z"/>
<path fill="#C42E2A" d="M347.7,397c0-8.7,0-17.3,0-28.5c19.3,2.6,36.1,5,52.8,7.3c1.4,1.8,2.8,3.7,4.2,5.4c1,4.7,2,9.3,2.9,14
	c-5.2-0.3-10.3-0.9-15.4-0.5c-2.3,0.1-4.3,2.4-6.4,3.8c-2.8-3.8-5.7-7.4-8.4-11.2c-0.8,0.5-1.5,0.9-2.3,1.4
	c-0.4,2.8-0.8,5.5-1.1,8.3C365.1,397,356.4,397,347.7,397z"/>
<path fill="#D82B23" d="M152,425.2c-0.5,1.9-1,3.8-1.6,6.4c6.6,0.6,12.5,1.1,19.4,1.8c-0.6,6.4-1.1,12.4-1.8,19.4
	c-16.3-1-32.2-2-48.4-3c-2.6-10.1,1.4-18.3,5.9-26.5C134.3,424,143.1,424.6,152,425.2z"/>
<path fill="#DA342C" d="M473.4,435.8c-1.1,3.3-3,6.4-3.2,9.7c0,3,2,6.2,3,9.3c-1,2.5-2.1,4.9-3.2,7.4c2.1,0.8,4.2,1.4,6.3,2.1
	c1.8,0.4,3.5,0.9,5.4,1.3c2.4-0.1,4.8-0.4,7.2-0.5c0,2,0,3.9,0,7.6c-14.3,0-29,0-46.5,0c2.8-9.8,5.4-17.3,6.8-25
	c0.8-4.3-0.5-9.1-0.9-13.6c6.8-2,13.6-4,19.9-5.9C469.5,429.9,471.6,432.8,473.4,435.8z"/>
<path fill="#C8332F" d="M451.9,400.5c0-8.6,0-17,0-26.6c16,1.3,30.6,2.4,46.4,3.5c-0.9,6.4,0,13.7-3.2,17.3
	c-2.4,2.6-10.1,0.5-15.8,0.5c-0.9,3-1.8,5.9-2.6,8.8c-3.5-0.5-7.1-1-10.5-1.4c-0.1-0.1-0.3-0.3-0.4-0.4
	C461.1,401.8,456.4,401.1,451.9,400.5z"/>
<path fill="#CF2C25" d="M451.9,400.5c4.7,0.6,9.3,1.1,13.9,1.8c0.1,0.1,0.3,0.3,0.4,0.4c3.5,0.5,7.1,1,10.5,1.4
	c0.1,2.9,0.3,5.7,0.4,9.6c2.6,0.3,5.4,0.3,8.1,1c2.9,0.8,7.7,2.1,7.8,3.7c0.5,4.9,0.4,10.5-6.4,12.4c-4.5,1.3-8.7,3.4-13.1,5.2
	c-2-3-3.9-5.9-5-7.7c-6.3,1.9-13.1,3.9-19.9,5.9C449.6,422.8,450.7,411.7,451.9,400.5z"/>
<path fill="#D92D25" d="M439.3,428.8c-0.8,13.2-1.5,26.6-2.4,40.2c-9.8-0.8-18.2-1.3-27.4-2c1.4-13.7,2.6-26.9,4-40.1
	C421.9,430.9,430.3,432,439.3,428.8z"/>
<path fill="#CD2B25" d="M347.7,397c8.7,0,17.5,0,26.2,0c0,1.5-0.3,2.9-0.1,4.4c0.4,2.9,0.9,5.8,1.3,8.7c2.3-1.1,4.4-2.5,6.7-3.3
	c0.5-0.1,1.6,1.9,2.6,3.2c0.4-4,0.8-7.8,1.1-11.5c2.1-1.3,4.3-3.5,6.4-3.8c5-0.4,10.2,0.3,15.4,0.5c-1.6,6.4,0.8,14.3-6.3,18.8
	c-1.8,1.1-4,1.5-6.2,2.3c-16.5,0-32.9,0-49.4,0c0.5-4,1-8.1,1.6-12.2c1.1-0.5,2.3-1.1,3.4-1.6c-1-0.6-2-1.4-3-2
	C347.7,399.4,347.7,398.2,347.7,397z"/>
<path fill="#D42F28" d="M252.9,409.3c1.6,1.4,3.3,2.8,4.2,3.4c3.5-1.3,6.7-2.4,9.8-3.4c-1.4,4.2-2.9,8.4-4.8,14.1c5.8,0,9,0,12.1,0
	c-0.6,10.7-1.4,21.3-2,32c-5.7,1.8-11.5,3.5-17.2,5.3c-5,0-7.2-1.9-6.6-7.4C250.2,438.6,251.4,424,252.9,409.3z"/>
<path fill="#1B1C1E" d="M441.3,480.5c0-0.8,0-1.5,0-2.3c14.3,1.1,28.5,2.3,42.9,3.2c7.7,0.5,16.3,2.1,16.6-11.2
	c9.2,6.1-2.3,10.2,2.4,15.5c-14.6,0-27.6,0-40.5,0c1.8,6.8,13.6,14.1,21.4,13.7c-2.3,1.8-4.5,3.7-7.9,6.2c3.3,1.1,5.8,2.1,10.5,3.8
	c-4.9,0-7.8,0-8.7,0c-2.1,2.5-3.4,3.7-4.2,5.2c-0.8,1.6-0.9,3.7-1.4,5.7c-3.8-4-7.2-7.8-10.6-11.6c-0.8-0.1-1.5-0.1-2.3-0.3
	c0.4,0.6,0.6,1.3,1,1.9c0.1,1.1,0.4,2.3,0.5,3.3c-0.8,0.4-1.5,0.8-2.4,1.1c-1.5-3.5-4.7-7.3-4.2-10.7c1.6-12.5,0.1-16.6-10.8-21.9
	C442.6,481.7,441.9,481.1,441.3,480.5z"/>
<path fill="#1C1E1F" d="M241.9,461.4c-1.1,2-1.8,4.8-3.5,5.7c-6.1,3.3-12.2,6.3-18.8,8.4c-7.7,2.5-10.6,8.8-5.8,15.4
	c3.9,5.3,4.7,9.8-1.3,15c-0.3-2.5-0.5-4.4-0.6-6.4c-0.5-0.3-1-0.4-1.5-0.6c-2.6,5.8-5.3,11.7-8.3,18.4c-4.8-7.1-9.3-13.6-13.5-19.8
	c7.1-2.1,14.9-13.2,14.6-23c-6.3-2.6-12.4-5.2-18.5-7.7c0.3-0.9,0.4-1.8,0.6-2.8c18.8,7.3,37.2,10.2,53.9-5
	C240,459.9,240.9,460.7,241.9,461.4z"/>
<path fill="#D82B23" d="M380.5,432.3c7.7,6.8,17,2.1,25.5,3.5c0.1,2.6,0.5,5.3,0.3,7.8c-2.1,22.7-5.5,28.4-31.7,25.7
	c1-6.3,1.9-12.6,2.9-18.9C378.5,444.3,379.5,438.3,380.5,432.3z"/>
<path fill="#161819" d="M178.5,458.4c-10.8,10.8-23.7,2.8-36.4,4.9c0.8,6.2,2,12.7,2.4,19.4c0.6,10.8-4,14.1-15.6,10.5
	c6.4-15.8-5.9-24.7-13.6-36.2C136.5,455.2,157.3,462.4,178.5,458.4z"/>
<path fill="#BC2F2C" d="M145,372.4c-5.4,0-11,0-17.7,0c0.9-7.7,1.5-13.5,2.4-20.2c15.6,1,30.8,1.9,47.4,3
	c-1.1,6.9-2.3,13.2-3.3,19.5c-2.6-0.8-5.2-2.1-7.8-2.3C159,372.1,152,372.4,145,372.4z"/>
<path fill="#CD2B25" d="M274.1,423.5c-3.2,0-6.3,0-12.1,0c1.9-5.7,3.4-10,4.8-14.1c9.8-0.9,19.7-2.1,29.5-2.4
	c13.2-0.3,26.5,0.5,39.6,0.8c-0.3,4-0.5,8.1-0.8,12.2c-7.8,0-15.8,0-23.6,0c-0.4-2-0.8-3.9-1.3-7.1c-1.3,3.2-2,5.2-2.8,7.1
	c-9.5,0.6-18.9,1.1-28.4,1.8c-0.6-3.3-1.4-6.7-2.5-12.2C275.6,415.6,274.8,419.6,274.1,423.5z"/>
<path fill="#C22C28" d="M337.5,390c-12.7-0.1-25.5-0.3-38.1-0.4c1.6-7.8,3.4-15.8,5.2-24c12,0.8,23.2,1.4,35.4,2.1
	C339,375.8,338.3,382.9,337.5,390z"/>
<path fill="#D42821" d="M311.5,419.9c7.8,0,15.8,0,23.6,0c-1,12.2-2,24.5-3.2,36.7c-7.9,0.4-16,0.8-24,1
	C309.2,445.2,310.4,432.5,311.5,419.9z"/>
<path fill="#C1302D" d="M292.6,386.5c-12.1-1.1-24.2-2.4-36.4-3.5c0-6.4,0-12.9,0-19.3c0.3-0.5,0.6-1,0.9-1.5
	c11,0.8,22.1,1.6,34.1,2.5C291.7,372.1,292.1,379.3,292.6,386.5z"/>
<path fill="#CD2B25" d="M152,425.2c-8.8-0.6-17.7-1.3-26.5-1.9c3.7-8.8,7.3-17.5,10.8-26.4c4.9,0,10-0.5,14.9,0.1
	c3.9,0.5,7.7,2.3,11.6,3.5C159.3,408.8,155.6,417,152,425.2z"/>
<path fill="#C8332F" d="M428.7,377.7c0.9,2.6,1.9,5.3,2.9,7.9c7.1-1.9,0.5-15.3,13.1-14.3c-0.9,11.1-1.8,21.9-2.6,32.8
	c-3.2,1.6-6.3,3.3-9.7,5c-3.3-8.4-10.5-6.7-17-6.8c0.8-7.1,1.4-14,2.1-21.1C421.1,380.1,424.9,378.8,428.7,377.7z"/>
<path fill="#C32C27" d="M162.9,400.6c-3.9-1.3-7.7-3-11.6-3.5c-4.9-0.6-9.8-0.1-14.9-0.1c2.9-8.2,5.7-16.4,8.6-24.6
	c6.9,0,14-0.3,20.9,0c2.6,0.1,5.3,1.5,7.8,2.3C170.1,383.4,166.6,392.1,162.9,400.6z"/>
<path fill="#CF2C25" d="M415.2,402.3c6.6,0.1,13.9-1.6,17,6.8c3.4-1.8,6.6-3.4,9.7-5c-0.9,8.2-1.9,16.4-2.8,24.7
	c-8.8,3.3-17.4,2.1-25.7-1.8C414,418.8,414.7,410.6,415.2,402.3z"/>
<path fill="#191A1B" d="M404.6,381.3c-1.4-1.8-2.8-3.7-4.2-5.4c-4.3-8.7-17.2-14.8-24.1-11.6c1.5-2.4,3.2-4.9,5.3-8.2
	c-2.9-0.5-5.7-1-9.1-1.6c3.3-3.3,11.2,0.1,10.2-7.6c2.6,0.3,5.4-0.1,7.9,0.8c2.5,0.9,4.7,2.8,8.2,5c-0.8-3.2-1.1-4.7-1.4-6.1
	c1-0.1,1.6-0.5,2-0.4c1.3,0.8,3.4,1.6,3.4,2.5c0.1,9.6,1.5,18.5,9.3,25.2C409.6,376.4,407.1,378.8,404.6,381.3z"/>
<path fill="#161819" d="M257,362c-0.3,0.5-0.6,1-0.9,1.5c-2,1-4.2,1.9-5.4,2.5c-4.2-5.3-7.4-10.7-12.1-14.6
	c-3.8-3.2-9.2-4.4-14.9-6.9c0.8-0.8,2.6-2.9,5.2-5.5c-1.9-0.9-3.9-1.9-6.7-3.3c3.2-0.4,5.7-0.6,8.4-1c-0.9-2.1-1.8-4-3.4-7.8
	c4.5,1.3,7.8,1.5,10.5,2.9s4.5,4,8.3,7.6c-0.5-3.9-0.6-5.5-0.9-7.2c0.6-0.3,1.3-0.6,2-0.9c1.5,3,5.3,7.2,4.3,9
	c-4.5,8.6,0.9,13.7,4.8,19.8C257.2,359.1,256.9,360.8,257,362z"/>
<path fill="#D0342E" d="M182.5,404c1.6,0,3.2,0,4.8,0c2.3,0.3,4.5,0.6,6.8,0.8c2.1,0.3,5.8-0.4,6.3,0.6c2.5,5.3,4.9,10.8,5.7,16.6
	c0.1,1.1-7.6,3.2-11.7,4.8c-4.9-1.1-10-2.3-14.9-3.4C180.5,417,181.5,410.6,182.5,404z"/>
<path fill="#D0342E" d="M241.5,425.2c-6.7-0.1-12.7,5.2-19.8,2.1c-4.3-1.8-6.1-4.3-2.5-8.4c1.6-2,2.9-4.3,4.2-6.6
	c3-5.3,6.7-6.9,11.9-2.4c0.4,0.4,1.6-0.4,2.5-0.6c1.8,0,3.5,0,5.4,0C242.5,414.6,242,419.9,241.5,425.2z"/>
<path fill="#C8332F" d="M243,409.3c-1.8,0-3.5,0-5.4,0c-3-5.7-9.1-10-7.4-17.7c4.5,0,9.1,0,13.6,0
	C243.5,397.6,243.3,403.5,243,409.3z"/>
<path fill="#212324" d="M506.1,440.6c-7.7,2.5-15.4,5.2-23.8,7.9c0-3.5,0-5.9,0-6.7c8.3-2.1,15.8-3.9,23.2-5.8
	C505.7,437.6,505.9,439.1,506.1,440.6z"/>
<path fill="#CA4B48" d="M428.7,377.7c-3.8,1.1-7.6,2.4-11.4,3.5c0.3-3.7,0.5-7.3,0.9-12.7c5,1.8,8.8,3,12.6,4.3
	C430.1,374.4,429.4,376,428.7,377.7z"/>
<path fill="#2A2B2C" d="M170.4,405.1c1.6,8.8,0.1,16.3-6.4,21.7c-0.9-0.4-1.8-0.8-2.6-1.1C164.5,418.8,167.4,412,170.4,405.1z"/>
<path fill="#EA8985" d="M481.9,465.6c-1.8-0.4-3.5-0.9-5.4-1.3c-2.1-0.8-4.2-1.4-6.3-2.1c1-2.5,2.1-4.9,3.2-7.4
	c0.5-0.1,0.9,0,1.3,0.3c2.3,2.9,4.5,5.8,6.8,8.6C481.5,464.3,481.8,465,481.9,465.6z"/>
<path fill="#DA342C" d="M481.4,463.7c-2.3-2.9-4.5-5.8-6.8-8.6c4,1.8,8.1,3.4,12.2,5.2C485.1,461.4,483.3,462.6,481.4,463.7z"/>
<path fill="#F1CDCC" d="M481.4,463.7c1.8-1.1,3.7-2.3,5.4-3.4c0.6,0,1.1,0,1.8,0c0.1,1.5,0.1,3.2,0.3,4.7l0.3,0.1
	c-2.4,0.1-4.8,0.4-7.2,0.5C481.8,465,481.5,464.3,481.4,463.7z"/>
<path fill="#C42E2A" d="M347.7,400.5c1,0.6,2,1.4,3,2c-1.1,0.5-2.3,1.1-3.4,1.6C347.5,402.9,347.6,401.8,347.7,400.5z"/>
<path fill="#D92D25" d="M488.8,465c-0.1-1.5-0.1-3.2-0.3-4.7C488.7,461.9,488.7,463.4,488.8,465z"/>
<path fill="#D42821" d="M279.1,421.7c9.5-0.6,18.9-1.1,28.4-1.8c-3,14.3-6.1,28.5-9.1,42.6c-5.8-2.1-11.7-4.3-17.5-6.4
	C280.2,444.7,279.7,433.2,279.1,421.7z"/>
<path fill="#F9E9E9" d="M298.4,462.6c3-14.3,6.1-28.5,9.1-42.6c0.8-2,1.5-3.9,2.8-7.1c0.6,3.2,0.9,5.2,1.3,7.1
	c-1.1,12.6-2.3,25.1-3.4,37.7C304.8,459.3,301.7,460.9,298.4,462.6z"/>
<path fill="#F9E9E9" d="M279.1,421.7c0.6,11.5,1.1,23,1.8,34.4c-2.9-0.3-5.8-0.5-8.8-0.8c0.6-10.7,1.4-21.3,2-32
	c0.8-3.9,1.4-7.8,2.5-14C277.7,415,278.5,418.4,279.1,421.7z"/>
<path fill="#F4F4F4" d="M380.5,432.3c-1,6.1-2,12.1-3,18c-2.6-1.5-5.2-2.9-7.8-4.4c0.5-6.7,1-13.4,1.4-20.1
	C377.3,424.1,379.2,427.6,380.5,432.3z"/>
<path fill="#F9E9E9" d="M385.8,398.5c-0.4,3.8-0.8,7.4-1.1,11.5c-1.1-1.3-2.3-3.3-2.6-3.2c-2.4,0.8-4.5,2.1-6.7,3.3
	c-0.5-2.9-1-5.8-1.3-8.7c-0.1-1.4,0-2.9,0.1-4.4c0.4-2.8,0.8-5.5,1.1-8.3c0.8-0.5,1.5-0.9,2.3-1.4
	C380.1,391.1,382.9,394.7,385.8,398.5z"/>
<path fill="#F1CDCC" d="M470.2,462.3c2.1,0.8,4.2,1.4,6.3,2.1C474.5,463.7,472.3,462.9,470.2,462.3z"/>
<path fill="#FDFDFD" d="M460.2,510.2c-0.4-0.6-0.6-1.3-1-1.9c0.8,0.1,1.5,0.1,2.3,0.3C461.1,509.2,460.6,509.7,460.2,510.2z"/>
<path fill="#F1CDCC" d="M215.7,399c-1.5,1.6-3.2,3.3-4.7,4.9c-0.8-0.8-1.6-1.5-2.4-2.1c1.5-1.6,3-3.4,4.5-5
	C214,397.5,214.8,398.2,215.7,399z"/>
<g>
	<path fill="#FFFFFF" d="M216.7,389c-1.8-0.4-3.5-1-5.2-1.8c-1-0.5-2-1-3.2-1c-1.9,0-3.4,1.4-4.7,2.9c-1,1.3-1.8,2.5-2.8,3.8
		c-1.1,1.6-2.5,3-3.8,4.7c-0.6,0.9-1.3,1.6-1.8,2.6c-2.4,3.8-3.8,8.2-4,12.7c0,0.6,0,1.3,0.1,1.9c0.3,0.9,1,1.6,1.4,2.5
		c0.3,0.5,0.4,1.1,0.5,1.6c0.3,0.6,0.5,1.3,0.9,1.9c1.6,2.9,3.2,5.7,4.8,8.6c0.4,0.8,0.9,1.5,1.4,2.3c1.3,1.8,3.2,3.3,5.2,4.2
		c0.5,0.3,0.9,0.4,1.4,0.4c0.5,0,1-0.1,1.5-0.3c1.8-0.4,3.4-0.9,5.2-1.3c3.3-0.8,6.8-1.6,9.5-3.8c0.8-0.6,1.4-1.3,2.1-1.8
		c0.8-0.5,1.6-0.6,2.4-1.1c2.3-1.1,3.5-3.8,4.5-6.2c2-4.5,4-9.1,5.9-13.6c-0.9,0-1.5-0.9-2.1-1.5c-1-1-2.4-1.4-3.7-1.9
		c-3.7-1.5-6.2-4.8-8.2-8.2c-0.3-0.5-0.6-1.1-0.8-1.6c-0.1-0.6-0.1-1.1-0.3-1.8c-0.3-1.4-1.5-2.4-2.8-3
		C219.4,389.5,217.9,389.3,216.7,389z"/>
	<path fill="#FFFFFF" d="M196.2,389.3c0.4-0.6,0.8-1.3,1.3-1.9c-0.3-0.1-0.5-0.4-0.8-0.6c-0.9-0.8-1-1.9-0.3-2.8
		c0.6-0.6,1.5-1.4,2.4-1.8c2.4-0.9,4.8-1.6,7.3-2.5c0.4-0.1,0.6-0.1,1.1-0.3c-0.3-0.4-0.4-0.6-0.6-0.9c-0.1-0.3-0.3-0.6-0.1-0.8
		c0.1-0.3,0.5-0.4,0.8-0.3c1,0.1,2,0.4,3,0.8c1.8,0.6,3.7,0.9,5.5,0.9c0.3,0,0.5-0.3,0.6-0.4c0.6-0.8,1.4-1.1,2.4-1.1
		c3.2,0.4,6.2,1.1,8.6,3.5c0.9,0.9,1.5,2.1,2.1,3.4c0.3,0.5,0.5,0.6,1,0.8c1.1,0.1,2.4,0.4,3.4,0.8c1.1,0.4,1.6,1.3,1.6,2.3
		c0,0.9-0.6,1.6-1.9,1.9c-0.6,0.1-1.1,0.3-2,0.4c1,1.1,1.9,2,2.6,3c0.8,0.9,1.5,1.6,1.9,2.5c1,2.5,2.3,5,2.4,7.9
		c0,0.3,0.4,0.5,0.6,0.8c0.5,0.5,1,0.9,1.5,1.4c0.1,0.1,0.4,0.4,0.5,0.5c2.4,1.1,3.7,3.5,3.2,6.2c-0.3,1.5-1.1,2.8-2.5,3.5
		c-1.3,0.6-2.3,1.5-3,2.6c-0.4,0.5-0.8,1-1.4,1.1c-1.5,0.4-1.8,1.5-2.3,2.6c-0.8,2.1-1.9,4.2-3.7,5.7c-1.6,1.3-3.5,2.4-5.3,3.5
		c-0.5,0.3-0.8,0.6-0.9,1.3c-0.8,2.5-1.6,5-2.6,7.6c-1,2.3-2.4,2.8-5.2,2.4c-0.3,0.5-0.5,1-0.9,1.5c-1,1.8-3,2.4-4.9,1.8
		c-1.9-0.6-3-2.6-2.5-4.7c0.3-1.3,0.9-2.4,1.4-3.7c-0.9,0.1-2,0.4-3,0.5c-3,0.4-5.5-0.5-7.6-2.9c-2.4-2.8-4.2-5.8-5.7-9
		c-1.8-3.8-3.3-7.6-4.7-11.4c-1.3-3.7-0.8-7.4,0.9-11c0.3-0.6,0.4-1.3,0-1.9c-0.4-0.6-0.5-1.5-0.4-2.3c0.1-1.4,0-2.8-0.5-4.2
		c-1.4-3.8,2.6-7.2,5.3-7.2C195.4,389.2,195.7,389.3,196.2,389.3z M214.9,435.3c-0.6,1.1-1.3,2-1.8,3c-0.6,1.3-1.4,2.4-1.9,3.7
		c-0.5,1.3,0.1,2.4,1.4,2.9c1.1,0.4,2.3-0.1,2.8-1.4c0.3-0.6,0.5-1.3,0.6-1.9c0.5-2.3,1-4.4,2.1-6.4c0.3-0.5,0.6-1.3,1.4-0.9
		c0.8,0.4,0,1.1-0.1,1.6c-0.5,1.1-1.1,2.3-1.6,3.4c-0.4,0.9,0,1.9,0.8,2.3c0.8,0.4,1.5,0.1,2.1-0.6c0.3-0.3,0.5-0.5,0.6-0.9
		c0.9-2.3,2-4.4,2.5-6.7c0.4-1.6,1-2.4,2.5-3.2c3-1.5,5.5-3.5,6.9-6.7c0.6-1.5,1.1-3,1.6-4.4c1.1,0.1,1.9-0.1,2.5-0.9
		c1-1.5,2.4-2.6,3.9-3.4c1.1-0.6,1.5-1.6,1.4-3c-0.6,0-1.1,0-1.8,0.1c0-0.1,0-0.1,0-0.3c0.5-0.4,1.1-0.8,1.6-1.1
		c-0.4-1.9-1.9-2-3.4-2c0.9-2.4-1.5-1.6-2.3-2.6c0.5-1.8,0.3-3.4-0.9-5c-0.1-0.1-0.1-0.4-0.1-0.6c-0.4-2.3-1.3-4.2-3.2-5.5
		c-0.4-0.4-0.8-0.8-1.1-1.3c-0.8-1.3-1.6-2.4-3.2-2.8c-0.3-0.1-0.5-0.3-0.8-0.4c0-0.1,0-0.3,0-0.4c2-0.5,4.2-1,6.2-1.5
		c0-0.1,0-0.1,0-0.3c-0.4-0.1-0.6-0.4-1-0.4c-1.3-0.3-2.4-0.4-3.7-0.5c-0.6,0-0.9-0.3-1-0.9c-0.3-1.9-1.3-3.3-2.8-4.4
		c-1.9-1.3-4-1.9-6.3-2.1c-0.3,0-0.5,0-0.9,0.1c0.5,0.8,1,1.3,1.6,2c-3.7-0.6-6.9-1.3-10.2-1.9c0.5,1.3,0.5,1.3-1,1.5
		c-0.1,0-0.1,0-0.1,0c-3.2,0.5-6.3,1.4-9.1,2.9c-0.5,0.3-0.9,0.6-1.3,0.9c0,0.1,0,0.3,0.1,0.3c1,0.1,2.1,0.3,3,0.4
		c-1.4,2-2.8,4-4.3,6.1c-0.6-0.3-1.4-0.8-2.1-0.8c-1.9,0.1-4.2,2.5-3.3,4.8c0.5,1.3,0.6,2.6,0.6,4c-0.1,1.3,0.1,2.3,1.1,3.2
		c-0.5,1.3-1,2.5-1.5,3.8c-0.9,2.3-1.3,4.7-0.5,7.1c1,3.2,2.1,6.3,3.4,9.3c1.6,3.9,3.7,7.6,6.3,10.8c1.9,2.4,4.2,3.4,7.2,2.8
		C210.4,436.5,212.5,435.8,214.9,435.3z"/>
	<path d="M214.9,435.3c-2.4,0.5-4.5,1.1-6.7,1.5c-3,0.6-5.3-0.4-7.2-2.8c-2.6-3.3-4.7-7.1-6.3-10.8c-1.3-3-2.4-6.2-3.4-9.3
		c-0.8-2.4-0.4-4.8,0.5-7.1c0.5-1.3,1-2.5,1.5-3.8c-1.1-0.8-1.3-1.9-1.1-3.2c0-1.4-0.1-2.8-0.6-4c-0.9-2.3,1.5-4.7,3.3-4.8
		c0.8,0,1.5,0.5,2.1,0.8c1.4-2,2.8-4,4.3-6.1c-1-0.1-2-0.3-3-0.4c0-0.1,0-0.3-0.1-0.3c0.4-0.3,0.9-0.6,1.3-0.9
		c2.9-1.5,5.9-2.4,9.1-2.9c0.1,0,0.1,0,0.1,0c1.5-0.3,1.5-0.3,1-1.5c3.3,0.6,6.6,1.3,10.2,1.9c-0.6-0.8-1-1.4-1.6-2
		c0.4,0,0.6-0.1,0.9-0.1c2.3,0.3,4.4,0.9,6.3,2.1c1.5,1.1,2.5,2.5,2.8,4.4c0.1,0.6,0.4,0.8,1,0.9c1.3,0.1,2.5,0.4,3.7,0.5
		c0.4,0.1,0.8,0.3,1,0.4c0,0.1,0,0.1,0,0.3c-2,0.5-4.2,1-6.2,1.5c0,0.1,0,0.3,0,0.4c0.3,0.1,0.5,0.3,0.8,0.4
		c1.5,0.5,2.4,1.5,3.2,2.8c0.3,0.5,0.6,0.9,1.1,1.3c1.9,1.4,2.9,3.3,3.2,5.5c0,0.3,0,0.5,0.1,0.6c1.1,1.5,1.4,3.3,0.9,5
		c0.8,1,3.2,0.3,2.3,2.6c1.5,0.1,3,0.1,3.4,2c-0.5,0.4-1.1,0.8-1.6,1.1c0,0.1,0,0.1,0,0.3c0.6,0,1.1,0,1.8-0.1
		c0.3,1.3-0.3,2.4-1.4,3c-1.6,0.9-2.9,1.9-3.9,3.4c-0.5,0.8-1.4,1-2.5,0.9c-0.5,1.4-1.1,2.9-1.6,4.4c-1.4,3.2-3.9,5.3-6.9,6.7
		c-1.4,0.8-2.1,1.5-2.5,3.2c-0.5,2.3-1.6,4.4-2.5,6.7c-0.1,0.3-0.4,0.6-0.6,0.9c-0.6,0.8-1.4,1-2.1,0.6c-0.8-0.4-1.1-1.3-0.8-2.3
		c0.5-1.1,1.1-2.3,1.6-3.4c0.3-0.5,0.9-1.1,0.1-1.6c-0.6-0.4-1,0.4-1.4,0.9c-1.3,2-1.8,4.2-2.1,6.4c-0.1,0.6-0.4,1.3-0.6,1.9
		c-0.5,1.3-1.6,1.8-2.8,1.4c-1.3-0.4-1.9-1.5-1.4-2.9c0.5-1.3,1.3-2.4,1.9-3.7C213.6,437.3,214.3,436.3,214.9,435.3z M237.2,408
		c-1.4-0.5-2.6-1-3.9-1.5c-3.4-1.4-6.2-3.7-8.4-6.6c-1.3-1.6-1.8-3.5-1.6-5.8c-0.4,0.1-0.5,0.3-0.8,0.3c-2,0.6-4.2,1.1-6.2,0.6
		c-0.5-0.1-1-0.4-1.6-0.6c1.5-0.8,2.8-1.3,3.9-1.8c0-0.1-0.1-0.3-0.1-0.4c-5.2-1.5-10.1-0.6-14.9,1.9c0-0.1-0.1-0.3-0.1-0.4
		c0.8-0.9,1.5-1.6,2.1-2.5c-1,0.3-1.9,0.5-2.6,1c-3.9,2.5-6.1,6.4-7.7,10.6c-0.1,0.3,0,0.5-0.1,0.8c-0.1,0.4-0.3,0.8-0.4,1.1
		c-0.1,0.3-0.4,0.4-0.5,0.6c-1.5,3.3-2,6.7-0.8,10.2c1.3,3.2,2.4,6.2,3.9,9.2c1.5,3.3,3.3,6.4,5.8,9.1c1,1.1,2.3,1.8,3.8,1.5
		c2.8-0.6,5.4-1.3,8.1-2c0.3-0.1,0.5-0.5,0.5-0.8c0.1-1.1-0.5-1.9-2-2c-1.4-0.1-2.6,0-4,0c-1.9,0.1-3.8,0-5.5-1.1
		c-2.9-1.8-4.7-4.3-6.3-7.3c-0.4-0.8,0-1.1,0.6-1.5c3-2,6.3-3.4,10-3.9c6.3-0.8,12.2,2.3,15,7.6c0.8,1.4,1.1,3,1.6,4.7
		c3-1.5,5.7-3.4,6.9-6.7c0.4-1,0.4-2.1,0.8-3c0.8-1.8,1.8-3.5,2.5-5.3C235.7,412,236.5,410.1,237.2,408z M220.5,423.5
		c0-0.1,0-0.3,0.1-0.3c-2.4-2.6-5.3-4.4-8.8-4.8c-2.1-0.3-2-0.3-2.8,1.8c-0.3,0.9,0,1.3,0.9,1.4c1.3,0.3,2.4,0.6,3.7,0.8
		C215.8,422.7,218.2,423.1,220.5,423.5z M229.8,402.4c-0.1-1-0.6-1.9,0.5-2.5c1.4-0.8,1.8,0.8,2.1,1.1c0.9-0.3,1.4-0.5,2.1-0.8
		c-0.3-1.9-1.1-3.4-2.8-4.5c-0.9-0.6-1.8-0.3-1.8,0.8c-0.1,1.8-0.6,3.2-2.6,3.8C228.1,400.9,229,401.6,229.8,402.4z M225.2,394.1
		c-0.1,0-0.3,0.1-0.4,0.1c-0.1,1.4,0.1,2.8,0.9,4c0.3,0.4,0.8,0.9,1,0.9c0.6-0.1,1.1-0.6,1.6-1c0.3-0.3,0.4-0.6,0.4-1
		c0-1.3,0.4-2.3,1.6-2.8c-0.6-1.9-2.3-3-4-2.9c0.9,2,1.3,4,0.6,6.2c-0.1,0-0.1,0-0.3,0C226.3,396.4,225.8,395.2,225.2,394.1z
		 M230.9,400.6l-0.1,0.1c0,0.8,0,1.5,0.1,2.1c0,0.1,0.3,0.3,0.4,0.4c1.4,0.8,2.6,1.4,4,2.1c0.6-1.3,0.5-2.3-0.1-3.4
		c-0.4-0.8-0.9-0.9-1.6-0.3c-0.9,0.8-1.4,0.6-2.1-0.3C231.3,401.1,231.2,400.9,230.9,400.6z M203.6,419.4c0,0.1,0,0.3,0,0.4
		c0.6,0.1,1.3,0.4,1.8,0.5c2.1,0.5,2.1,0.5,2.6-1.6c0,0,0,0-0.1-0.3C206.5,418.7,204.9,419.1,203.6,419.4z"/>
	<path fill="#FFFFFF" d="M220.5,423.5c-2.4-0.4-4.7-0.8-7.1-1.1c-1.3-0.3-2.4-0.5-3.7-0.8c-0.8-0.1-1.1-0.4-0.9-1.4
		c0.6-2.1,0.6-2.1,2.8-1.8c3.5,0.5,6.4,2.1,8.8,4.8C220.6,423.3,220.6,423.5,220.5,423.5z"/>
	<path fill="#FFA4A4" d="M229.8,402.4c-0.8-0.8-1.6-1.4-2.5-2.3c2-0.6,2.5-2,2.6-3.8c0-1.1,0.9-1.4,1.8-0.8c1.6,1.1,2.5,2.8,2.8,4.5
		c-0.6,0.3-1.3,0.5-2.1,0.8c-0.4-0.4-0.8-1.9-2.1-1.1C229.2,400.4,229.7,401.4,229.8,402.4z"/>
	<path fill="#FFA4A4" d="M225.2,394.1c0.5,1.1,1,2.3,1.5,3.4c0.1,0,0.1,0,0.3,0c0.6-2.1,0.3-4.2-0.6-6.2c1.8-0.1,3.3,1,4,2.9
		c-1.3,0.5-1.6,1.5-1.6,2.8c0,0.4-0.1,0.8-0.4,1c-0.5,0.4-1,0.9-1.6,1c-0.3,0.1-0.8-0.5-1-0.9c-0.8-1.3-1.1-2.5-0.9-4
		C225,394.2,225.1,394.1,225.2,394.1z"/>
	<path fill="#FFA4A4" d="M230.9,400.6c0.3,0.3,0.4,0.5,0.6,0.9c0.6,0.9,1.3,0.9,2.1,0.3c0.8-0.6,1.1-0.5,1.6,0.3
		c0.6,1.1,0.6,2.3,0.1,3.4c-1.4-0.8-2.6-1.4-4-2.1c-0.1-0.1-0.4-0.3-0.4-0.4c0-0.8-0.1-1.5-0.1-2.1
		C230.8,400.8,230.8,400.6,230.9,400.6z"/>
	<path fill="#FFFFFF" d="M203.6,419.4c1.4-0.4,2.9-0.8,4.3-1.1c0.1,0.3,0.1,0.3,0.1,0.3c-0.5,2.1-0.5,2.3-2.6,1.6
		c-0.6-0.1-1.1-0.4-1.8-0.5C203.6,419.7,203.6,419.6,203.6,419.4z"/>
	<path d="M219.4,410.1c-1.4-3-0.3-5.8,1.1-8.4c0.4-0.9,1-1,1.9-0.6c3,1.5,5.7,3.5,7.4,6.4c0.9,1.5,1.6,3.3,2.4,4.9
		c0.1,0.3,0.3,0.6,0.4,1.3c-1.9-0.1-3.7-0.4-5.4-0.5c0.4,0.8-0.1,0.9-0.8,0.6c-0.5-0.1-1.9,0.6-2,0.5c-0.5-0.4-2.5-2.4-3.3-3.3
		C221.2,411.9,219.2,410.2,219.4,410.1z M227.9,409.2c-0.4-0.5-0.6-1.1-1-1.6c0,0.1-0.1,0.3-0.1,0.4c-0.6,0-1.3,0.1-1.8-0.1
		c-0.9-0.5-0.1-1.3,0-2c-0.4-0.3-0.8-0.5-1.1-0.6c-0.1-0.1-0.6,0.1-0.6,0.3c-0.3,0.6-0.5,1.1-0.5,1.8c-0.1,1.3,0.5,2.1,1.6,2.6
		C225.5,410.4,226.8,410,227.9,409.2z M224.4,413.8c0.6-0.5,0.9-0.6,1.3-0.9c0-0.1,0-0.1,0-0.3c-0.4,0-0.9,0-1.3,0
		C224.4,413,224.4,413.3,224.4,413.8z"/>
	<path d="M205.4,405.7c0.3-0.6,0-0.9-0.6-1.1c-1.4-0.6-2.5-1.4-3.5-2.8c1.3,0.4,2.3,0.8,3.3,1c0-0.1,0.1-0.1,0.1-0.3
		c-0.6-0.9-1.3-1.9-1.9-2.9c-0.4-0.5-0.6-1-0.9-1.6c-0.5-1.1-0.4-1.3,0.8-1.5c3.3-0.8,6.4-0.4,9.5,1c1.4,0.6,2.5,1.5,3.8,2.3
		c0.5,0.3,0.5,0.6,0.3,1.1c-1.1,2.4-2.6,4.5-5.4,5.5c-0.6,0.3-1.4,0.4-1.8,0.8c-0.9,0.6-1,0.9-0.6-0.4c-0.9,0-1.8-0.3-2.4,0
		C205.6,407.2,205.2,405.7,205.4,405.7z M206.6,398.6c-0.3,1.9,0.4,3.2,1.6,3.8s2.5,0.3,3.5-0.9c0.9-1,0.9-1.4-0.1-1.8
		c-1,0.3-1.8,0.8-2.3,0.6c-0.5-0.1-0.9-1-1.3-1.5c0-0.1,0.1-0.1,0.1-0.3C207.7,398.6,207.2,398.6,206.6,398.6z"/>
	<path d="M209.1,413.3c-0.9-0.4-1.1-0.9-0.4-1.4c1.3-0.8,1.6-1.9,2-3.2c0.4-1.3,1.8-1.6,2.8-0.9c0.4,0.3,0.8,0.9,0.8,1.4
		c0,0.5-0.5,0.9-0.9,1.4c-0.1,0.3-0.4,0.4-0.5,0.6C212.4,413.3,210.9,414,209.1,413.3z M213.5,408.8c0-0.1,0-0.1,0.1-0.3
		c-0.5-0.1-1-0.3-1.5-0.3c-0.3,0-0.5,0.5-0.6,0.8c0,0.1,0.1,0.5,0.3,0.5c0.3,0,0.6,0,0.9-0.1C213,409.2,213.3,409.1,213.5,408.8z"/>
	<path fill="#FFFFFF" d="M227.9,409.2c-1.1,0.9-2.4,1.3-3.7,0.6c-1-0.5-1.8-1.4-1.6-2.6c0-0.6,0.4-1.3,0.5-1.8
		c0-0.1,0.5-0.3,0.6-0.3c0.4,0.1,0.8,0.4,1.1,0.6c-0.3,0.6-0.9,1.4,0,2c0.5,0.3,1.1,0.1,1.8,0.1c0-0.1,0.1-0.3,0.1-0.4
		C227.3,408.1,227.6,408.6,227.9,409.2z"/>
	<path fill="#FFFFFF" d="M206.6,398.6c0.5,0,1.1,0,1.8,0c0,0.1-0.1,0.1-0.1,0.3c0.4,0.5,0.8,1.4,1.3,1.5c0.5,0.1,1.3-0.3,2.3-0.6
		c1,0.4,1.1,0.8,0.1,1.8c-1,1.1-2.3,1.4-3.5,0.9C207,401.9,206.3,400.6,206.6,398.6z"/>
	<path d="M215.7,415.8c0.8,0.3,1.3,0,1-0.8c-0.4-1.4,0.1-2.5,0.6-3.7c0.5-1.1,0-2.3-1.1-2.3c-0.4,0-1,0.3-1.3,0.6s-0.3,1-0.3,1.6
		c0,0.3,0,0.6-0.1,0.8C213.6,413.8,214.1,415.3,215.7,415.8z M215.7,409.6c0-0.1,0.1-0.1,0.1-0.3c0.4,0.3,0.9,0.4,1.1,0.8
		c0.1,0.1,0,0.6-0.1,0.9c0,0.1-0.4,0.3-0.5,0.3c-0.1-0.1-0.4-0.4-0.4-0.6C215.8,410.4,215.8,410,215.7,409.6z"/>
</g>
<g>
	<path stroke="#FFFFFF" stroke-width="19.8425" stroke-miterlimit="10" d="M318.4,504.9c-0.6,2.3-1.9,3.7-3.8,3.9
		c-0.4,0-0.8-0.1-1.1-0.5c-0.4-0.4-0.8-0.5-1-0.6c-0.4,0-0.8,0-1.1,0.1c-3.8,8.2-6.4,13.7-8.3,16.5c-3.3,5.2-6.9,8.2-10.8,9.2
		c-1,0.3-2.1,0.4-3.2,0.1c-1-0.1-3.5-1.4-7.3-3.5c-1.5-0.6-3.8-1.9-6.9-3.8c-3-2.1-5-6.4-5.9-12.6c-0.8-5.7-0.5-12.1,0.8-19.4
		c1.6-9.6,4.4-17.9,8.3-24.8c4.3-7.7,9-11.6,13.9-11.7c0.4,0,0.9,0,1.4,0.1c2.9,0.5,6.3,2,10.1,4.5c4.2,2.8,6.8,5.4,7.9,8.1
		c1,2.1,1.4,4.7,1.3,7.7c0,3.4,0,5.3,0,5.7c0,1,0,2.3,0.1,3.7c-0.1,0.8-0.5,1.6-1.3,2.5c-0.8,0.9-1.5,1.4-2.1,1.5
		c-0.8,0.1-3-0.6-6.6-2.4c-3.5-1.8-5.7-3-6.3-3.8c-0.9-0.9-1.1-2.3-0.6-4.3c0-0.3,0.3-0.6,0.6-1c0.4-0.4,0.6-0.8,0.6-1.1
		c0.8-4.2,0.6-6.3-0.4-6.4c-2-0.4-4.3,2.6-6.9,9.1c-2.5,6.1-4.3,12.7-5.5,20.2c-1.9,11-1.4,17.7,1.4,19.8c0.9,0.6,2.4-0.8,4.5-4.2
		c2.3-3.4,3.8-6.7,4.5-9.8c-0.8-0.9-2.4-2-4.8-3.7c-1.9-1.3-2.9-2.1-3-2.9c-0.1-0.9,0.4-2.1,1.5-3.5c1.1-1.5,2.1-2.4,3.2-2.6
		c1-0.3,2.3-0.4,3.9-0.1c2.1,0.4,3.5,0.5,4,0.5c1,0,2.6-0.3,5-0.6c1.9-0.4,3.3-0.5,4.3-0.4c0.4,0,0.6,0.1,0.9,0.3
		c1.4,0.5,3.3,2.1,5.7,5C317.4,502.3,318.6,504.1,318.4,504.9z"/>
	<path stroke="#FFFFFF" stroke-width="19.8425" stroke-miterlimit="10" d="M348.8,543.3c-1.3-0.1-2.5-0.5-4-1.1
		c-1.4-0.6-2.8-1.4-4.2-2.1c-1.6-0.8-4.3-2-7.7-3.9c-4.3-2.8-7.1-7.4-8.4-13.7c-1.1-5.7-1.1-12.2,0.1-19.7c1-6.1,3.3-13,6.8-20.8
		c4.7-10.5,9.3-15.3,13.9-14.5c0.4,0.1,1,0.3,1.6,0.6c0.6,0.4,1.3,0.5,1.6,0.6c4.5-0.5,7.3-0.6,8.6-0.4c0.6,0.1,1.1,0.3,1.8,0.4
		c6.8,2,11.6,7.3,14.3,15.9c2.4,7.7,2.8,16.4,1.1,26.2c-1.6,9.3-4.5,17-9,23.1C360.3,540.5,354.9,543.7,348.8,543.3z M358.1,479.3
		c-1.3-0.5-2.8,0.9-4.7,4.5c-1.9,3.5-3.5,5.2-4.8,5c-0.3,0-0.6-0.3-1.1-0.6s-0.9-0.6-1.3-0.8c-2.8,4-4.8,10.1-6.2,18.2
		c-1.1,6.3-1.4,11.9-0.8,16.6c0.6,5.3,2.3,8.4,4.8,9.5c3,1.1,6.1-1.6,9.2-8.3c2.8-5.8,4.8-13,6.3-21.4c1-5.8,1.4-10.6,1.1-14.6
		C360.6,482.6,359.7,480.1,358.1,479.3z"/>
	<path stroke="#FFFFFF" stroke-width="19.8425" stroke-miterlimit="10" d="M405.3,521.2c-0.5,2.3-1.3,3.5-2.4,3.7c-0.4,0-0.6,0-1,0
		c-1.9-0.3-4-1.4-6.6-3.3s-4.5-4-6.1-6.3c-0.6-1-0.4-2.5,0.8-4.5c1.1-2.1,1.6-3.2,1.6-3.3l5.5-36.1c0.3-1.6,1.4-2.6,3.4-3
		c0.4-0.1,1,0,1.6,0c1.8,0.3,3.8,1,5.9,2.1c2.1,1.1,3.5,2.1,3.9,3.2c0.1,0.3-0.1,1.9-0.6,5.2l-6.1,38.8c0,0.4-0.1,1-0.1,1.6
		C405.3,520.2,405.3,520.8,405.3,521.2z M403.1,535.1c0.1,0.6-0.1,2.1-0.8,4.7c-0.8,3.3-1.3,5.3-1.4,6.1c-0.4,2.5-0.9,4.5-1.3,5.8
		c-0.5,1.4-1.4,2-2.8,2.1c-0.8,0.1-2.9-0.9-6.3-2.9c-3.5-2.1-5.7-3.9-6.2-5.2c-0.4-0.8,0-1.9,1-3.4c0.5-0.6,0.9-1.8,1.3-3.4
		c0.1-1.4,0.5-4,1.3-8.1c0.6-2.3,1.8-3.2,3.4-2.9c1.8,0.4,4.2,1.5,7.1,3.3C401.4,533.1,402.9,534.3,403.1,535.1z"/>
</g>
<g>
	<path d="M317.6,503.2c-0.6,2.3-1.9,3.7-3.8,3.9c-0.4,0-0.8-0.1-1.1-0.5s-0.8-0.5-1-0.6c-0.4,0-0.8,0-1.1,0.1
		c-3.8,8.2-6.4,13.7-8.3,16.5c-3.3,5.2-6.9,8.2-10.8,9.2c-1,0.3-2.1,0.4-3.2,0.1c-1-0.1-3.5-1.4-7.3-3.5c-1.5-0.6-3.8-1.9-6.9-3.8
		c-3-2.1-5-6.4-5.9-12.6c-0.8-5.7-0.5-12.1,0.8-19.4c1.6-9.6,4.4-17.9,8.3-24.8c4.3-7.7,9-11.6,13.9-11.7c0.4,0,0.9,0,1.4,0.1
		c2.9,0.5,6.3,2,10.1,4.5c4.2,2.8,6.8,5.4,7.9,8.1c1,2.1,1.4,4.7,1.3,7.7c0,3.4,0,5.3,0,5.7c0,1,0,2.3,0.1,3.7
		c-0.1,0.8-0.5,1.6-1.3,2.5c-0.8,0.9-1.5,1.4-2.1,1.5c-0.8,0.1-3-0.6-6.6-2.4c-3.5-1.8-5.7-3-6.3-3.8c-0.9-0.9-1.1-2.3-0.6-4.3
		c0-0.3,0.3-0.6,0.6-1s0.6-0.8,0.6-1.1c0.8-4.2,0.6-6.3-0.4-6.4c-2-0.4-4.3,2.6-6.9,9.1c-2.5,6.1-4.3,12.7-5.5,20.2
		c-1.9,11-1.4,17.7,1.4,19.8c0.9,0.6,2.4-0.8,4.5-4.2c2.3-3.4,3.8-6.7,4.5-9.8c-0.8-0.9-2.4-2-4.8-3.7c-1.9-1.3-2.9-2.1-3-2.9
		c-0.1-0.9,0.4-2.1,1.5-3.5c1.1-1.5,2.1-2.4,3.2-2.6c1-0.3,2.3-0.4,3.9-0.1c2.1,0.4,3.5,0.5,4,0.5c1,0,2.6-0.3,5-0.6
		c1.9-0.4,3.3-0.5,4.3-0.4c0.4,0,0.6,0.1,0.9,0.3c1.4,0.5,3.3,2.1,5.7,5C316.7,500.7,317.7,502.4,317.6,503.2z"/>
	<path d="M348,541.6c-1.3-0.1-2.5-0.5-4-1.1c-1.4-0.6-2.8-1.4-4.2-2.1c-1.6-0.8-4.3-2-7.7-3.9c-4.3-2.8-7.1-7.4-8.4-13.7
		c-1.1-5.7-1.1-12.2,0.1-19.7c1-6.1,3.3-13,6.8-20.8c4.7-10.5,9.3-15.3,13.9-14.5c0.4,0.1,1,0.3,1.6,0.6c0.6,0.4,1.3,0.5,1.6,0.6
		c4.5-0.5,7.3-0.6,8.6-0.4c0.6,0.1,1.1,0.3,1.8,0.4c6.8,2,11.6,7.3,14.3,15.9c2.4,7.7,2.8,16.4,1.1,26.2c-1.6,9.3-4.5,17-9,23.1
		C359.4,538.7,354,541.9,348,541.6z M357.3,477.6c-1.3-0.5-2.8,0.9-4.7,4.5c-1.9,3.5-3.5,5.2-4.8,5c-0.3,0-0.6-0.3-1.1-0.6
		c-0.5-0.4-0.9-0.6-1.3-0.8c-2.8,4-4.8,10.1-6.2,18.2c-1.1,6.3-1.4,11.9-0.8,16.6c0.6,5.3,2.3,8.4,4.8,9.5c3,1.1,6.1-1.6,9.2-8.3
		c2.8-5.8,4.8-13,6.3-21.4c1-5.8,1.4-10.6,1.1-14.6C359.8,480.9,358.8,478.3,357.3,477.6z"/>
	<path d="M404.5,519.6c-0.5,2.3-1.3,3.5-2.4,3.7c-0.4,0-0.6,0-1,0c-1.9-0.3-4-1.4-6.6-3.3s-4.5-4-6.1-6.3c-0.6-1-0.4-2.5,0.8-4.5
		c1.1-2.1,1.6-3.2,1.6-3.3l5.7-36.1c0.3-1.6,1.4-2.6,3.4-3c0.4-0.1,1,0,1.6,0c1.8,0.3,3.8,1,5.9,2.1c2.1,1.1,3.5,2.1,3.9,3.2
		c0.1,0.3-0.1,1.9-0.6,5.2l-6.1,38.8c0,0.4-0.1,1-0.1,1.6C404.6,518.6,404.5,519.1,404.5,519.6z M402.3,533.3
		c0.1,0.6-0.1,2.1-0.8,4.7c-0.8,3.3-1.3,5.3-1.4,6.1c-0.4,2.5-0.9,4.5-1.3,5.8c-0.5,1.4-1.4,2-2.8,2.1c-0.8,0.1-2.9-0.9-6.3-2.9
		c-3.5-2.1-5.7-3.9-6.2-5.2c-0.4-0.8,0-1.9,1-3.4c0.5-0.6,0.9-1.8,1.3-3.4c0.1-1.4,0.5-4,1.3-8.1c0.6-2.3,1.8-3.2,3.4-2.9
		c1.8,0.4,4.2,1.5,7.1,3.3C400.6,531.4,402.2,532.7,402.3,533.3z"/>
</g>
</svg>
