<?xml version="1.0" encoding="utf-8"?>
<!-- Generator: Adobe Illustrator 18.0.0, SVG Export Plug-In . SVG Version: 6.00 Build 0)  -->
<!DOCTYPE svg PUBLIC "-//W3C//DTD SVG 1.1//EN" "http://www.w3.org/Graphics/SVG/1.1/DTD/svg11.dtd">
<svg version="1.1" id="Layer_1" xmlns="http://www.w3.org/2000/svg" xmlns:xlink="http://www.w3.org/1999/xlink" x="0px" y="0px"
	 viewBox="317.5 491.7 56.7 56.7" enable-background="new 317.5 491.7 56.7 56.7" xml:space="preserve">
<path fill="#FFFFFF" d="M344.4,491.7c1,0,2.1,0,3.1,0c0.2,0,0.4,0.1,0.6,0.1c0.8,0.1,1.6,0.1,2.4,0.3c5.9,1,11.1,3.6,15.4,7.8
	c4.5,4.5,7.3,9.9,8.2,16.2c0.1,0.8,0.2,1.7,0.3,2.5c0,1,0,2.1,0,3.1c0,0.2-0.1,0.4-0.1,0.5c-0.2,2.8-0.8,5.6-1.9,8.2
	c-4.2,10-11.7,15.9-22.4,17.8c-0.8,0.1-1.7,0.2-2.5,0.3c-1,0-2.1,0-3.1,0c-0.2,0-0.3-0.1-0.5-0.1c-4.8-0.3-9.2-1.8-13.2-4.4
	c-7.2-4.7-11.5-11.3-12.8-19.8c-0.1-0.8-0.2-1.7-0.3-2.5c0-1,0-2.1,0-3.1c0-0.2,0.1-0.4,0.1-0.6c0.1-0.8,0.1-1.5,0.3-2.3
	c1-5.9,3.6-11.1,7.8-15.4c4.5-4.5,9.9-7.3,16.2-8.2C342.7,491.9,343.5,491.8,344.4,491.7z M356.4,536.4c0-0.2,0-0.3-0.1-0.5
	c-0.6-2.3-1.3-4.6-2.4-6.7c-1-1.9-2.1-3.6-3.8-5c-2.7-2.2-5.7-2.2-8.4,0c-0.5,0.4-1.1,0.9-1.5,1.5c-2,2.3-3.2,5.1-4.1,8
	c-0.3,0.9-0.5,1.8-0.8,2.7C342.4,536.4,349.4,536.4,356.4,536.4z M343.5,511.2c0-4-3.2-7.4-7.3-7.4c-4,0-7.3,3.3-7.4,7.3
	c0,4,3.2,7.4,7.2,7.4C340.2,518.5,343.5,515.3,343.5,511.2z M348.8,511.1c0,4,3.2,7.1,7.2,7.1c3.8,0,7.1-3.3,7-7.1
	c0-3.9-3.2-7.1-7.2-7.1C351.9,504,348.8,507.3,348.8,511.1z"/>
<path fill="#FFFFFF" d="M330.3,511.3c-0.1-3.2,2.4-5.8,5.7-6c3.1-0.1,5.8,2.4,6,5.5c0.1,3.4-2.3,6.1-5.5,6.2
	C333.2,517.1,330.5,514.7,330.3,511.3z M340.7,511.2c0-2.5-2-4.6-4.5-4.6c-2.5,0-4.6,2-4.6,4.6c0,2.5,2.1,4.5,4.6,4.5
	C338.7,515.7,340.7,513.6,340.7,511.2z"/>
<path fill="#FFFFFF" d="M355.8,516.8c-3.2,0-5.7-2.5-5.6-5.7c0-3.2,2.5-5.7,5.7-5.6c3.1,0,5.6,2.6,5.6,5.7
	C361.5,514.3,359,516.8,355.8,516.8z M360.3,511.1c0-2.4-2-4.4-4.4-4.4c-2.4,0-4.4,2-4.4,4.4c0,2.4,2,4.4,4.4,4.4
	S360.3,513.5,360.3,511.1z"/>
<path fill="#FFFFFF" d="M339.2,511.1c0,1.7-1.3,3.1-3,3.1c-1.7,0-3.1-1.4-3.1-3.1c0-1.7,1.4-3.1,3.1-3.1
	C337.9,508.1,339.2,509.4,339.2,511.1z M334.3,511.1c0,1,0.8,1.8,1.8,1.9c1,0,1.9-0.8,1.9-1.9c0-1-0.8-1.8-1.9-1.8
	C335.1,509.3,334.3,510.1,334.3,511.1z"/>
<path fill="#FFFFFF" d="M355.9,514.1c-1.7,0-3-1.3-3-3c0-1.7,1.3-3,3-3c1.6,0,3,1.3,3,3C358.9,512.8,357.5,514.1,355.9,514.1z
	 M355.8,512.9c1,0,1.8-0.8,1.8-1.8c0-0.9-0.8-1.8-1.8-1.8c-1,0-1.8,0.8-1.8,1.8C354.1,512.1,354.9,512.9,355.8,512.9z"/>
</svg>
